<svg width="25" height="24" viewBox="0 0 25 24" fill="currentColor" xmlns="http://www.w3.org/2000/svg">
<path d="M24.3129 13.2059C24.134 13.0587 23.9172 12.9645 23.6872 12.9339C23.4572 12.9034 23.2232 12.9378 23.0119 13.0332C21.7016 13.6302 20.277 13.9375 18.8361 13.9339C16.1707 13.9307 13.6146 12.8783 11.7252 11.0061C9.83575 9.13384 8.76628 6.59371 8.74993 3.93951C8.75558 3.10767 8.85955 2.27938 9.0597 1.47175C9.10218 1.25649 9.08625 1.03384 9.01355 0.82675C8.94086 0.619657 8.81404 0.435608 8.64615 0.293564C8.47826 0.151519 8.27537 0.0566175 8.05839 0.0186347C7.84141 -0.019348 7.61819 0.000962081 7.41171 0.0774727C5.46922 0.947243 3.78065 2.29445 2.50462 3.99255C1.22859 5.69064 0.406992 7.68387 0.117007 9.78499C-0.172978 11.8861 0.0781695 14.0262 0.846856 16.0041C1.61554 17.982 2.87654 19.7329 4.51138 21.0922C6.14622 22.4516 8.10124 23.3748 10.1928 23.7751C12.2843 24.1754 14.4437 24.0397 16.4682 23.3808C18.4926 22.7218 20.3155 21.5612 21.7658 20.008C23.2161 18.4548 24.2461 16.56 24.759 14.5015C24.8214 14.2658 24.8124 14.017 24.733 13.7864C24.6536 13.5559 24.5074 13.3539 24.3129 13.2059ZM12.5415 21.4606C10.4621 21.446 8.43793 20.7916 6.74631 19.5872C5.0547 18.3828 3.77829 16.6871 3.09185 14.7324C2.40542 12.7777 2.34252 10.6594 2.91176 8.66773C3.481 6.67603 4.65456 4.90822 6.27175 3.60636V3.93951C6.27503 7.25677 7.59983 10.4372 9.95539 12.7829C12.311 15.1285 15.5048 16.4478 18.8361 16.451C19.7108 16.4542 20.5832 16.3632 21.4382 16.1796C20.5831 17.7904 19.3026 19.1382 17.7348 20.0776C16.1669 21.0169 14.3713 21.5122 12.5415 21.5099V21.4606Z"/>
</svg>
