<svg width="20" height="20" viewBox="0 0 20 20" fill="currentColor" xmlns="http://www.w3.org/2000/svg">
<path d="M10.998 20H8.99805V17H10.998V20ZM16.362 17.778L14.241 15.657L15.655 14.243L17.777 16.365L16.364 17.778H16.362ZM3.63405 17.778L2.21905 16.364L4.33905 14.242L5.75405 15.656L3.63405 17.777V17.778ZM9.99805 15.007C7.23302 15.0059 4.99231 12.7637 4.99305 9.99867C4.99378 7.23364 7.23568 4.99263 10.0007 4.993C12.7657 4.99337 15.007 7.23497 15.007 10C15.0043 12.7649 12.763 15.0053 9.99805 15.007ZM9.99805 6.993C8.33759 6.9941 6.99231 8.34087 6.99305 10.0013C6.99378 11.6618 8.34025 13.0074 10.0007 13.007C11.6612 13.0066 13.007 11.6605 13.007 10C13.0054 8.33918 11.6589 6.99355 9.99805 6.993ZM19.998 11H16.998V9H19.998V11ZM2.99805 11H-0.00195312V9H2.99805V11ZM15.654 5.758L14.241 4.343L16.362 2.221L17.777 3.636L15.655 5.757L15.654 5.758ZM4.34105 5.758L2.22105 3.637L3.63605 2.223L5.75605 4.345L4.34205 5.757L4.34105 5.758ZM10.998 3H8.99805V0H10.998V3Z"/>
</svg>
