<svg width="41" height="39" viewBox="0 0 41 39" fill="none" xmlns="http://www.w3.org/2000/svg">
<path d="M0.800049 -1.63269H40.8V38.3673H0.800049V-1.63269Z" fill="#F0F0F0"/>
<path d="M0.800049 3.36688H40.8V8.3664H0.800049V3.36688ZM0.800049 13.3672H40.8V18.3667H0.800049V13.3672ZM0.800049 23.3662H40.8V28.3657H0.800049V23.3662ZM0.800049 33.3666H40.8V38.3661H0.800049V33.3666Z" fill="#D80027"/>
<path d="M0.800049 -1.63269H20.8V19.9058H0.800049V-1.63269Z" fill="#2E52B2"/>
<path d="M8.59856 7.19068L8.27645 8.67707H7.23458L8.07763 9.59523L7.75552 11.0815L8.59856 10.1633L9.44106 11.0815L9.11903 9.59523L9.96208 8.67707H8.92013L8.59856 7.19068ZM8.92013 14.0409L8.59856 12.5546L8.27645 14.0409H7.23458L8.07763 14.9592L7.75552 16.4455L8.59856 15.5272L9.44106 16.4455L9.11903 14.9592L9.96208 14.0409H8.92013ZM4.51692 14.0409L4.19528 12.5546L3.87317 14.0409H2.8313L3.67435 14.9592L3.35224 16.4455L4.19528 15.5272L5.03786 16.4455L4.71583 14.9592L5.55872 14.0409H4.51692ZM4.19528 7.19068L3.87317 8.67707H2.8313L3.67435 9.59523L3.35224 11.0815L4.19528 10.1633L5.03786 11.0815L4.71583 9.59523L5.55872 8.67707H4.51692L4.19528 7.19068ZM8.59856 1.8266L8.27645 3.31311H7.23458L8.07763 4.23138L7.75552 5.71765L8.59856 4.79938L9.44106 5.71765L9.11903 4.23138L9.96208 3.31311H8.92013L8.59856 1.8266ZM4.19528 1.8266L3.87317 3.31311H2.8313L3.67435 4.23138L3.35224 5.71765L4.19528 4.79938L5.03786 5.71765L4.71583 4.23138L5.55872 3.31311H4.51692L4.19528 1.8266ZM13.0018 7.19068L12.6797 8.67707H11.6379L12.4808 9.59523L12.1589 11.0815L13.0018 10.1633L13.8444 11.0815L13.5223 9.59523L14.3654 8.67707H13.3235L13.0018 7.19068ZM13.3235 14.0409L13.0018 12.5546L12.6797 14.0409H11.6379L12.4808 14.9592L12.1589 16.4455L13.0018 15.5272L13.8444 16.4455L13.5223 14.9592L14.3654 14.0409H13.3235ZM17.7268 14.0409L17.4051 12.5546L17.083 14.0409H16.0412L16.8841 14.9592L16.5621 16.4455L17.4051 15.5272L18.2477 16.4455L17.9256 14.9592L18.7686 14.0409H17.7268ZM17.4051 7.19068L17.083 8.67707H16.0412L16.8841 9.59523L16.5621 11.0815L17.4051 10.1633L18.2477 11.0815L17.9256 9.59523L18.7686 8.67707H17.7268L17.4051 7.19068ZM13.0018 1.8266L12.6797 3.31311H11.6379L12.4808 4.23138L12.1589 5.71765L13.0018 4.79938L13.8444 5.71765L13.5223 4.23138L14.3654 3.31311H13.3235L13.0018 1.8266ZM17.4051 1.8266L17.083 3.31311H16.0412L16.8841 4.23138L16.5621 5.71765L17.4051 4.79938L18.2477 5.71765L17.9256 4.23138L18.7686 3.31311H17.7268L17.4051 1.8266Z" fill="#F0F0F0"/>
</svg>
